<?xml version="1.0" encoding="utf-8"?>
<!-- Generator: Adobe Illustrator 16.0.4, SVG Export Plug-In . SVG Version: 6.00 Build 0)  -->
<!DOCTYPE svg PUBLIC "-//W3C//DTD SVG 1.1//EN" "http://www.w3.org/Graphics/SVG/1.1/DTD/svg11.dtd">
<svg version="1.1" xmlns="http://www.w3.org/2000/svg" x="0px" y="0px" width="311px"
	 height="131px">
<g id="Layer_3">
	<g>
		<path fill="#C6FFC6" stroke="#000000" stroke-miterlimit="10" d="M61.75,49.167v50.75c0,3.313-11.51,6-25.708,6
			s-25.708-2.687-25.708-6v-50.75"/>
		<ellipse fill="#E0FFE0" stroke="#000000" stroke-miterlimit="10" cx="36.042" cy="49.167" rx="25.708" ry="6"/>
	</g>
	<g>
		<path fill="#C6FFC6" stroke="#000000" stroke-miterlimit="10" d="M121.324,49.167v50.75c0,3.313-11.51,6-25.708,6
			s-25.708-2.687-25.708-6v-50.75"/>
		<ellipse fill="#E1FFE1" stroke="#000000" stroke-miterlimit="10" cx="95.615" cy="49.167" rx="25.708" ry="6"/>
	</g>
	<g>
		<path fill="#C6FFC6" stroke="#000000" stroke-miterlimit="10" d="M180.897,49.167v50.75c0,3.313-11.51,6-25.709,6
			c-14.198,0-25.708-2.687-25.708-6v-50.75"/>
		<ellipse fill="#E1FFE1" stroke="#000000" stroke-miterlimit="10" cx="155.189" cy="49.167" rx="25.708" ry="6"/>
	</g>
	<g>
		<path fill="#C6FFC6" stroke="#000000" stroke-miterlimit="10" d="M240.472,49.167v50.75c0,3.313-11.51,6-25.709,6
			c-14.197,0-25.708-2.687-25.708-6v-50.75"/>
		<ellipse fill="#E1FFE1" stroke="#000000" stroke-miterlimit="10" cx="214.763" cy="49.167" rx="25.708" ry="6"/>
	</g>
	<g>
		<path fill="#C6FFC6" stroke="#000000" stroke-miterlimit="10" d="M300.046,49.167v50.75c0,3.313-11.51,6-25.709,6
			c-14.197,0-25.709-2.687-25.709-6v-50.75"/>
		<ellipse fill="#E1FFE1" stroke="#000000" stroke-miterlimit="10" cx="274.337" cy="49.167" rx="25.709" ry="6"/>
	</g>
</g>
<g id="text">
	<text transform="matrix(1 0 0 1 24.3306 21.3335)" font-family="'Arial'" font-size="18" fill="#FFFFFF">29</text>
	<text transform="matrix(1 0 0 1 58.5684 21.3335)" font-family="'Arial'" font-size="18" fill="#FFFFFF">25</text>
	<text transform="matrix(1 0 0 1 97.811 21.3335)" font-family="'Arial'" font-size="18" fill="#FFFFFF">3</text>
	<text transform="matrix(1 0 0 1 127.0435 21.3335)" font-family="'Arial'" font-size="18" fill="#FFFFFF">49</text>
	<text transform="matrix(1 0 0 1 166.2861 21.3335)" font-family="'Arial'" font-size="18" fill="#FFFFFF">9</text>
	<text transform="matrix(1 0 0 1 195.5186 21.3335)" font-family="'Arial'" font-size="18" fill="#FFFFFF">37</text>
	<text transform="matrix(1 0 0 1 229.7568 21.3335)" font-family="'Arial'" font-size="18" fill="#FFFFFF">21</text>
	<text transform="matrix(1 0 0 1 263.9941 21.3335)" font-family="'Arial'" font-size="18" fill="#FFFFFF">43</text>
	<text transform="matrix(1 0 0 1 132.5806 72.5)" font-family="'Arial'" font-size="18" fill="#000000">29</text>
	<text transform="matrix(1 0 0 1 155.1514 83.084)" font-family="'Arial'" font-size="18" fill="#000000">25</text>
	<text transform="matrix(1 0 0 1 22.4771 78.666)" font-family="'Arial'" font-size="18" fill="#000000">3</text>
	<text transform="matrix(1 0 0 1 256.377 76)" font-family="'Arial'" font-size="18" fill="#000000">49</text>
	<text transform="matrix(1 0 0 1 39.6191 94.668)" font-family="'Arial'" font-size= "18" fill="#000000">9</text>
	<text transform="matrix(1 0 0 1 210.8525 83.334)" font-family="'Arial'" font-size="18" fill="#000000">37</text>
	<text transform="matrix(1 0 0 1 136.4238 99.334)" font-family="'Arial'" font-size="18" fill="#000000">21</text>
	<text transform="matrix(1 0 0 1 269.9941 94.668)" font-family="'Arial'" font-size="18" fill="#000000">43</text>
	<text transform="matrix(1 0 0 1 257.6523 123.334)" font-family="'Arial'" font-size="12" fill="#FFFFFF">40–49</text>
	<text transform="matrix(1 0 0 1 198.0781 123.334)" font-family="'Arial'" font-size="12" fill="#FFFFFF">30–39</text>
	<text transform="matrix(1 0 0 1 138.5044 123.334)" font-family="'Arial'" font-size="12" fill="#FFFFFF">20–29</text>
	<text transform="matrix(1 0 0 1 78.9307 123.334)" font-family="'Arial'" font-size="12" fill="#FFFFFF">10–19</text>
	<text transform="matrix(1 0 0 1 26.0308 123.334)" font-family="'Arial'" font-size="12" fill="#FFFFFF">0–9</text>
</g>
</svg>
